<svg width="35" height="35" viewBox="0 0 35 35" fill="none" xmlns="http://www.w3.org/2000/svg">
<path d="M28.1036 29.0514L19.2324 20.1803C18.5241 20.7838 17.7095 21.2508 16.7887 21.5814C15.8679 21.9119 14.9423 22.0772 14.012 22.0772C11.7435 22.0772 9.82342 21.2919 8.25186 19.7213C6.68031 18.1497 5.89453 16.2301 5.89453 13.9625C5.89453 11.6949 6.67936 9.77438 8.24903 8.20094C9.81964 6.62655 11.7388 5.83936 14.0064 5.83936C16.2749 5.83936 18.1959 6.62513 19.7694 8.19669C21.3428 9.76824 22.1295 11.6888 22.1295 13.9583C22.1295 14.9424 21.9553 15.8949 21.6068 16.8157C21.2573 17.7365 20.7993 18.5242 20.2326 19.1787L29.1038 28.0484L28.1022 29.0514H28.1036ZM14.012 20.6591C15.8915 20.6591 17.4786 20.0122 18.7734 18.7183C20.0673 17.4244 20.7143 15.8372 20.7143 13.9569C20.7143 12.0774 20.0673 10.4907 18.7734 9.19686C17.4796 7.90297 15.8929 7.25602 14.0134 7.25602C12.134 7.25602 10.5469 7.90297 9.25203 9.19686C7.95814 10.4907 7.3112 12.0774 7.3112 13.9569C7.3112 15.8363 7.95814 17.423 9.25203 18.7169C10.5459 20.0107 12.1326 20.6591 14.012 20.6591Z" fill="#101616"/>
</svg>
